<svg width="156" height="62" viewBox="0 0 156 62" fill="none" xmlns="http://www.w3.org/2000/svg">
<path d="M152.48 19.067C152.853 21.4095 151.345 24.0798 147.938 26.9353C144.56 29.7671 139.446 32.6652 132.957 35.4559C119.985 41.0341 101.623 46.1378 80.948 49.4333C60.2733 52.7288 41.2342 53.5868 27.171 52.318C20.1355 51.6832 14.3742 50.5185 10.2827 48.8774C6.15701 47.2225 3.89385 45.1533 3.52045 42.8108C3.14706 40.4682 4.65476 37.798 8.06153 34.9425C11.44 32.1106 16.5537 29.2125 23.0432 26.4219C36.015 20.8437 54.3773 15.7399 75.052 12.4444C95.7267 9.1489 114.766 8.29093 128.829 9.55979C135.865 10.1946 141.626 11.3593 145.717 13.0004C149.843 14.6552 152.106 16.7245 152.48 19.067Z" stroke="#F7DD4A"/>
<path d="M153.409 31.1939C153.449 33.5656 151.579 35.9965 147.804 38.3428C144.06 40.6697 138.588 42.8174 131.77 44.6646C118.141 48.357 99.2421 50.8191 78.3093 51.1649C57.3764 51.5107 38.4067 49.6741 24.6632 46.4339C17.7876 44.8129 12.2482 42.847 8.42923 40.6451C4.57824 38.4248 2.62964 36.057 2.59046 33.6852C2.55128 31.3134 4.42062 28.8826 8.19617 26.5362C11.9404 24.2094 17.4118 22.0617 24.2301 20.2144C37.8591 16.5221 56.7578 14.0599 77.6906 13.7141C98.6235 13.3684 117.593 15.205 131.337 18.4452C138.212 20.0662 143.752 22.032 147.571 24.2339C151.422 26.4543 153.37 28.8221 153.409 31.1939Z" stroke="#F7DD4A"/>
</svg>
